<?xml version="1.0" encoding="utf-8"?>
<!-- Generator: Adobe Illustrator 24.0.3, SVG Export Plug-In . SVG Version: 6.00 Build 0)  -->
<svg version="1.1" id="Layer_1" xmlns="http://www.w3.org/2000/svg" xmlns:xlink="http://www.w3.org/1999/xlink" x="0px" y="0px"
	 viewBox="0 0 34 33" style="enable-background:new 0 0 34 33;" xml:space="preserve">
<style type="text/css">
	.st0{display:none;}
	.st1{display:inline;fill:#C1B4B4;}
	.st2{display:inline;}
	.st3{display:none;fill:#FFFFFF;}
	.st4{fill:#FFFFFF;}
</style>
<g class="st0">
	<rect x="-6.5" y="-7.5" class="st1" width="46" height="44"/>
	<path class="st2" d="M39-7v43H-6V-7H39 M40-8H-7v45h47V-8L40-8z"/>
</g>
<path class="st3" d="M33.5,6.3c-1.2,0.5-2.6,0.9-3.9,1.1c1.4-0.8,2.5-2.2,3-3.8c-1.3,0.8-2.8,1.4-4.3,1.6C27.6,4.6,26.9,4,26,3.7
	c-0.9-0.4-1.8-0.6-2.7-0.6c-3.8,0-6.8,3.1-6.8,6.8c0,0.5,0.1,1.1,0.2,1.6C11,11.2,5.9,8.5,2.6,4.4C2,5.4,1.6,6.6,1.6,7.8
	c0,2.4,1.2,4.5,3,5.7c-1.1,0-2.1-0.3-3.1-0.9v0.1c0,3.3,2.3,6.1,5.5,6.7c-0.6,0.2-1.2,0.2-1.8,0.2c-0.4,0-0.9,0-1.3-0.1
	c0.9,2.7,3.4,4.7,6.4,4.7c-2.3,1.8-5.3,2.9-8.5,2.9c-0.6,0-1.1,0-1.6-0.1c3,1.9,6.6,3.1,10.5,3.1c12.6,0,19.4-10.4,19.4-19.4
	c0-0.3,0-0.6,0-0.9C31.5,8.9,32.6,7.7,33.5,6.3z"/>
<path class="st4" d="M31.6,0.6H2.2c-0.7,0-1.3,0.6-1.3,1.3v29.5c0,0.7,0.6,1.3,1.3,1.3h29.5c0.7,0,1.3-0.6,1.3-1.3V1.9
	C32.9,1.2,32.3,0.6,31.6,0.6z M27.9,10h-2.6c-2,0-2.4,1-2.4,2.4v3.1h4.8l-0.6,4.8H23v12.4h-5V20.3h-4.2v-4.8H18v-3.6
	c0-4.1,2.5-6.4,6.2-6.4c1.8,0,3.3,0.1,3.7,0.2L27.9,10L27.9,10z"/>
<path class="st3" d="M31.6,0.6H2.2c-0.7,0-1.3,0.6-1.3,1.3v29.5c0,0.7,0.6,1.3,1.3,1.3h29.5c0.7,0,1.3-0.6,1.3-1.3V1.9
	C32.9,1.2,32.3,0.6,31.6,0.6z M10.4,27.9H5.6V12.6h4.8V27.9z M8,10.5c-0.5,0-1.1-0.2-1.5-0.5C6,9.8,5.7,9.4,5.5,8.8
	C5.3,8.3,5.2,7.8,5.3,7.3c0.1-0.5,0.4-1,0.8-1.4c0.4-0.4,0.9-0.6,1.4-0.8C8,5,8.6,5,9.1,5.2c0.5,0.2,0.9,0.6,1.2,1
	c0.3,0.5,0.5,1,0.5,1.5C10.8,9.3,9.5,10.5,8,10.5z M28.2,27.9h-4.7v-7.4c0-1.8,0-4.1-2.5-4.1c-2.5,0-2.8,1.9-2.8,3.9v7.6h-4.7V12.6
	h4.6v2.1H18c0.6-1.2,2.2-2.5,4.5-2.5c4.8,0,5.7,3.2,5.7,7.3V27.9z"/>
</svg>
