<?xml version="1.0" encoding="utf-8"?>
<!-- Generator: Adobe Illustrator 24.0.3, SVG Export Plug-In . SVG Version: 6.00 Build 0)  -->
<svg version="1.1" id="Layer_1" xmlns="http://www.w3.org/2000/svg" xmlns:xlink="http://www.w3.org/1999/xlink" x="0px" y="0px"
	 viewBox="0 0 61 61" style="enable-background:new 0 0 61 61;" xml:space="preserve">
<style type="text/css">
	.st0{display:none;fill:#2091F9;}
	.st1{fill:#2091F9;}
	.st2{display:none;}
	.st3{display:inline;fill:#2091F9;}
</style>
<path class="st0" d="M20.8,7.5c3.7,0,7.3,1.5,9.9,4.1s4.1,6.2,4.1,9.9c0,3.4-1.2,6.5-3.2,8.9h21v22.9H29.7v-21
	c-2.4,2-5.5,3.2-8.9,3.2c-3.7,0-7.3-1.5-9.9-4.1c-2.6-2.6-4.1-6.2-4.1-9.9s1.5-7.3,4.1-9.9S17.1,7.5,20.8,7.5z"/>
<g id="Layer_2">
	<path class="st1" d="M25.8,50.5c4.2-1.6,3.2-6.1,1.1-9c-2.1-2.9-4.9-4.9-7.8-6.9c-2.1-1.3-3.9-2.9-5.5-4.8c-0.7-0.8-2-2.2-0.6-2.5
		c1.4-0.3,3.8,1.1,5,1.6c2.1,0.9,4.2,1.9,6.2,3.1l2.4-4c-3.6-2.4-8.3-4.5-12.6-5.2c-2.5-0.4-5.1,0.1-5.9,2.8
		c-0.7,2.3,0.4,4.6,1.8,6.5c3.2,4.3,8.2,6.3,11.9,10c0.8,0.8,1.8,1.7,2.2,2.8c0.5,1,0.4,1.1-0.7,1.1c-2.9,0-6.5-2.3-8.9-3.8l-2.4,4
		C15.4,48.5,21.4,51.9,25.8,50.5z M51.7,14.1c0.5-0.5,0.5-1.4,0-1.8l-3-3c-0.2-0.2-0.6-0.4-0.9-0.4c-0.3,0-0.7,0.1-0.9,0.4l-2.4,2.4
		l4.9,4.9L51.7,14.1z M28.7,27.3v4.9h4.9l14.3-14.4L43,12.9L28.7,27.3z"/>
</g>
<g id="Layer_3" class="st2">
	<path class="st3" d="M53,11.8l-3.4-3.4c-0.9-1-2.6-1-3.6,0L23.2,31.1l7,7L53,15.3C53.9,14.3,53.9,12.7,53,11.8z M18.1,35.6
		c-2,0-4,0.8-5.4,2.2c-1.4,1.4-2.2,3.4-2.2,5.4c0,3.3-2.9,5.1-5.1,5.1c2.3,3.1,6.4,5.1,10.2,5.1c2.7,0,5.3-1.1,7.2-3
		c1.9-1.9,3-4.5,3-7.2c0-2-0.8-4-2.2-5.4C22.1,36.4,20.1,35.6,18.1,35.6z"/>
</g>
</svg>
