<?xml version="1.0" encoding="utf-8"?>
<!-- Generator: Adobe Illustrator 24.0.3, SVG Export Plug-In . SVG Version: 6.00 Build 0)  -->
<svg version="1.1" id="Layer_1" xmlns="http://www.w3.org/2000/svg" xmlns:xlink="http://www.w3.org/1999/xlink" x="0px" y="0px"
	 viewBox="0 0 29 35" style="enable-background:new 0 0 29 35;" xml:space="preserve">
<style type="text/css">
	.st0{clip-path:url(#SVGID_2_);}
	.st1{fill:#2091F9;}
	.st2{display:none;}
	.st3{display:inline;}
	.st4{clip-path:url(#SVGID_4_);}
	.st5{clip-path:url(#SVGID_6_);}
</style>
<g>
	<defs>
		<rect id="SVGID_1_" x="1.9" y="1.5" width="26" height="32"/>
	</defs>
	<clipPath id="SVGID_2_">
		<use xlink:href="#SVGID_1_"  style="overflow:visible;"/>
	</clipPath>
	<g class="st0">
		<path class="st1" d="M14.9,20.6c3.5,0,6.3-2.8,6.3-6.3c0-3.5-2.8-6.3-6.3-6.3c-3.5,0-6.3,2.8-6.3,6.3
			C8.5,17.8,11.4,20.6,14.9,20.6z M14.9,11.1c1.7,0,3.2,1.4,3.2,3.2s-1.4,3.2-3.2,3.2s-3.2-1.4-3.2-3.2S13.1,11.1,14.9,11.1z"/>
		<path class="st1" d="M13.6,33c0.3,0.2,0.6,0.3,0.9,0.3c0.3,0,0.7-0.1,0.9-0.3c0.5-0.3,11.8-8.5,11.7-18.7c0-7-5.7-12.7-12.7-12.7
			c-7,0-12.7,5.7-12.7,12.7C1.8,24.5,13.1,32.7,13.6,33z M14.5,4.8c5.2,0,9.5,4.3,9.5,9.5c0,7-6.9,13.3-9.5,15.4
			C12,27.6,5,21.3,5,14.3C5,9.1,9.3,4.8,14.5,4.8z"/>
	</g>
</g>
<g id="Layer_2" class="st2">
	<g class="st3">
		<defs>
			<rect id="SVGID_3_" x="4.3" y="0.5" width="21" height="34"/>
		</defs>
		<clipPath id="SVGID_4_">
			<use xlink:href="#SVGID_3_"  style="overflow:visible;"/>
		</clipPath>
		<g class="st4">
			<path class="st1" d="M20.4,1.4H8.7c-2.4,0-4.4,2-4.4,4.4v23.3c0,2.4,2,4.4,4.4,4.4h11.7c2.4,0,4.4-2,4.4-4.4V5.8
				C24.7,3.4,22.8,1.4,20.4,1.4z M17.5,30.6h-5.8v-1.5h5.8V30.6z M22.2,26.2H6.9V5.8h15.3V26.2z"/>
		</g>
	</g>
</g>
<g id="Layer_3" class="st2">
	<g class="st3">
		<defs>
			<rect id="SVGID_5_" x="1.3" y="6.5" width="27" height="22"/>
		</defs>
		<clipPath id="SVGID_6_">
			<use xlink:href="#SVGID_5_"  style="overflow:visible;"/>
		</clipPath>
		<g class="st5">
			<path class="st1" d="M26.6,7.2H2.3c-0.5,0-0.9,0.4-0.9,0.9v18.8c0,0.5,0.4,0.9,0.9,0.9h24.4c0.5,0,0.9-0.4,0.9-0.9V8.1
				C27.6,7.6,27.2,7.2,26.6,7.2z M25.5,10.4v15.3h-22V10.4L2.6,9.8l1.2-1.5l1.3,1h18.8l1.3-1l1.2,1.5L25.5,10.4z M23.9,9.3l-9.4,7.3
				L5,9.3l-1.3-1L2.6,9.8l0.8,0.6l10,7.8c0.3,0.2,0.6,0.3,1,0.3s0.7-0.1,1-0.3l10-7.8l0.8-0.6l-1.2-1.5L23.9,9.3z"/>
		</g>
	</g>
</g>
</svg>
